<svg width="320" height="105" xmlns="http://www.w3.org/2000/svg" fill="none">

 <g>
  <title>Layer 1</title>
  <path id="svg_1" fill="white" d="m119,61.161l0,-17.322l2.143,0l0,15.311l8.931,0l0,2.011l-11.074,0z"/>
  <path id="svg_2" fill="white" d="m135.592,61.161l6.263,-17.322l2.406,0l6.287,17.322l-2.334,0l-1.81,-5.281l-6.787,0l-1.834,5.281l-2.191,0zm6.668,-12.864l-2.024,5.814l5.573,0l-1.953,-5.814l-0.762,-2.447l-0.048,0c-0.302,0.969 -0.564,1.785 -0.786,2.447z"/>
  <path id="svg_3" fill="white" d="m160.053,61.161l-5.93,-17.322l2.31,0l4.191,12.888l0.667,2.326l0.048,0c0.27,-1.033 0.492,-1.809 0.667,-2.326l4.143,-12.888l2.239,0l-5.978,17.322l-2.357,0z"/>
  <path id="svg_4" fill="white" d="m171.956,61.161l6.263,-17.322l2.406,0l6.287,17.322l-2.334,0l-1.81,-5.281l-6.787,0l-1.834,5.281l-2.191,0zm6.668,-12.864l-2.024,5.814l5.572,0l-1.952,-5.814l-0.762,-2.447l-0.048,0c-0.302,0.969 -0.564,1.785 -0.786,2.447z"/>
  <path id="svg_5" fill="white" d="m191.995,61.161l5.644,-9.085l-5.168,-8.237l4.81,0l2.882,5.039l0.048,0l2.929,-5.039l4.572,0l-5.048,8.189l5.644,9.133l-4.978,0l-3.191,-5.863l-0.047,0l-3.311,5.863l-4.786,0z"/>
  <path id="svg_6" fill="white" d="m223.301,61.161l0,-17.322l2.143,0l0,15.311l8.931,0l0,2.011l-11.074,0z"/>
  <path id="svg_7" fill="white" d="m239.893,61.161l6.263,-17.322l2.406,0l6.287,17.322l-2.334,0l-1.81,-5.281l-6.787,0l-1.834,5.281l-2.191,0zm6.668,-12.864l-2.024,5.814l5.573,0l-1.953,-5.814l-0.762,-2.447l-0.048,0c-0.302,0.969 -0.563,1.785 -0.786,2.447z"/>
  <path id="svg_8" fill="white" d="m261.456,61.161l0,-17.322l7.216,0c1.794,0 3.159,0.501 4.096,1.502c0.73,0.775 1.095,1.761 1.095,2.956c0,1.841 -0.913,3.052 -2.738,3.634l0,0.072c1.016,0.243 1.841,0.727 2.476,1.454c0.635,0.711 0.953,1.623 0.953,2.737c0,1.325 -0.413,2.431 -1.238,3.319c-1.001,1.099 -2.422,1.648 -4.263,1.648l-7.597,0zm2.143,-1.962l5.359,0c1.174,0 2.063,-0.291 2.667,-0.873c0.508,-0.549 0.762,-1.219 0.762,-2.01c0,-1.05 -0.326,-1.85 -0.977,-2.399c-0.651,-0.549 -1.516,-0.823 -2.595,-0.823l-5.216,0l0,6.105zm0,-7.947l4.811,0c1.032,0 1.841,-0.25 2.429,-0.751c0.587,-0.5 0.881,-1.195 0.881,-2.083c0,-0.84 -0.27,-1.494 -0.81,-1.962c-0.524,-0.485 -1.262,-0.727 -2.214,-0.727l-5.097,0l0,5.523z"/>
  <path id="svg_9" fill="white" d="m287.737,61.5c-2.286,0 -4.049,-0.573 -5.287,-1.72c-1.223,-1.147 -1.882,-2.641 -1.977,-4.482l2.096,0c0.286,2.972 2.04,4.458 5.263,4.458c1.222,0 2.199,-0.275 2.929,-0.824c0.746,-0.565 1.119,-1.373 1.119,-2.423c0,-0.468 -0.087,-0.88 -0.261,-1.235c-0.175,-0.355 -0.389,-0.646 -0.643,-0.872c-0.239,-0.226 -0.604,-0.436 -1.096,-0.63c-0.492,-0.194 -0.953,-0.347 -1.381,-0.46c-0.413,-0.113 -0.985,-0.251 -1.715,-0.412c-0.873,-0.194 -1.595,-0.388 -2.167,-0.582c-0.572,-0.21 -1.143,-0.492 -1.715,-0.848c-0.571,-0.355 -1,-0.807 -1.286,-1.356c-0.27,-0.566 -0.405,-1.244 -0.405,-2.035c0,-1.422 0.524,-2.536 1.572,-3.343c1.064,-0.824 2.469,-1.236 4.215,-1.236c3.827,0 5.978,1.801 6.454,5.402l-2.024,0c-0.159,-1.227 -0.611,-2.148 -1.357,-2.761c-0.747,-0.63 -1.755,-0.945 -3.025,-0.945c-1.175,0 -2.111,0.242 -2.81,0.727c-0.683,0.484 -1.024,1.171 -1.024,2.059c0,0.387 0.071,0.735 0.214,1.042c0.159,0.29 0.357,0.541 0.596,0.751c0.254,0.193 0.579,0.371 0.976,0.533c0.413,0.161 0.818,0.298 1.215,0.411c0.396,0.097 0.881,0.202 1.452,0.315c0.794,0.162 1.445,0.315 1.953,0.461c0.508,0.129 1.072,0.331 1.691,0.605c0.619,0.275 1.095,0.59 1.429,0.945c0.349,0.355 0.643,0.824 0.881,1.405c0.254,0.565 0.381,1.228 0.381,1.987c0,1.583 -0.579,2.826 -1.738,3.731c-1.144,0.888 -2.652,1.332 -4.525,1.332z"/>
  <path id="svg_10" fill="#3674C9" d="m26,52.488c0,-18.894 14.9611,-34.293 33.6789,-34.988l-20.7968,62.124c-7.8622,-6.42 -12.8821,-16.192 -12.8821,-27.136z"/>
  <path id="svg_11" fill="#3674C9" d="m60.611,53.039l11.3617,-33.808c13.9553,4.605 24.0273,17.754 24.0273,33.257c0,19.336 -15.67,35.012 -35,35.012c-6.6604,0 -12.8863,-1.861 -18.1863,-5.092l11.8331,-13.528c0.7096,-0.811 2.0151,-0.644 2.4971,0.321l4.0038,8.01c0.4926,0.986 1.8382,1.133 2.5329,0.278l16.2197,-19.97c0.8051,-0.991 0.1,-2.473 -1.1767,-2.473l-16.6781,0c-1.0399,0 -1.7711,-1.023 -1.4345,-2.007z"/>
 </g>
</svg>